<?xml version="1.0" encoding="UTF-8"?>
<!DOCTYPE svg PUBLIC "-//W3C//DTD SVG 1.1//EN" "http://www.w3.org/Graphics/SVG/1.1/DTD/svg11.dtd">
<svg xmlns="http://www.w3.org/2000/svg" version="1.1" width="680px" height="140px" style="shape-rendering:geometricPrecision; text-rendering:geometricPrecision; image-rendering:optimizeQuality; fill-rule:evenodd; clip-rule:evenodd" xmlns:xlink="http://www.w3.org/1999/xlink">
<g><path style="opacity:1" fill="#033150" d="M -0.5,-0.5 C 226.167,-0.5 452.833,-0.5 679.5,-0.5C 679.5,46.1667 679.5,92.8333 679.5,139.5C 452.833,139.5 226.167,139.5 -0.5,139.5C -0.5,92.8333 -0.5,46.1667 -0.5,-0.5 Z"/></g>
<g><path style="opacity:1" fill="#f2f4f6" d="M 88.5,38.5 C 94.7576,38.1903 100.924,38.5236 107,39.5C 107.5,57.8303 107.667,76.1636 107.5,94.5C 113.986,92.8346 116.819,95.168 116,101.5C 115.25,102.126 114.416,102.626 113.5,103C 105.5,103.667 97.5,103.667 89.5,103C 85.9345,100.822 85.6012,98.1558 88.5,95C 91.146,94.5026 93.8127,94.3359 96.5,94.5C 96.5,78.5 96.5,62.5 96.5,46.5C 93.8127,46.6641 91.146,46.4974 88.5,46C 85.9142,43.506 85.9142,41.006 88.5,38.5 Z"/></g>
<g><path style="opacity:1" fill="#f7f8f9" d="M 186.5,41.5 C 186.168,52.5202 186.501,63.5202 187.5,74.5C 188.107,74.3764 188.44,74.0431 188.5,73.5C 191.859,70.4715 195.192,67.4715 198.5,64.5C 199.289,64.2172 199.956,63.7172 200.5,63C 197.854,62.5026 195.187,62.3359 192.5,62.5C 191.021,59.8569 191.354,57.3569 193.5,55C 202.833,54.3333 212.167,54.3333 221.5,55C 225.065,57.1775 225.399,59.8442 222.5,63C 219.167,63.3333 215.833,63.6667 212.5,64C 209.133,67.7026 205.466,71.036 201.5,74C 206.833,80.6667 212.167,87.3333 217.5,94C 220.167,94.3333 222.833,94.6667 225.5,95C 229.165,100.705 227.498,103.538 220.5,103.5C 213.52,102.779 206.52,102.279 199.5,102C 197.552,96.596 199.552,93.9293 205.5,94C 201.667,89.5 197.833,85 194,80.5C 189.938,82.5486 187.438,85.7153 186.5,90C 186.559,91.4357 186.892,92.769 187.5,94C 195.4,93.2007 197.734,96.2007 194.5,103C 186.167,103.667 177.833,103.667 169.5,103C 166.068,100.633 165.735,97.9663 168.5,95C 171.146,94.5026 173.813,94.3359 176.5,94.5C 176.5,78.5 176.5,62.5 176.5,46.5C 173.428,46.8174 170.428,46.4841 167.5,45.5C 165.993,43.0314 166.327,40.8647 168.5,39C 174.167,38.3333 179.833,38.3333 185.5,39C 186.252,39.6708 186.586,40.5041 186.5,41.5 Z"/></g>
<g><path style="opacity:1" fill="#f4f6f7" d="M 27.5,38.5 C 45.155,39.1836 62.8217,39.3502 80.5,39C 81.4162,39.3742 82.2496,39.8742 83,40.5C 83.1907,48.838 82.8573,57.1714 82,65.5C 79.3333,68.1667 76.6667,68.1667 74,65.5C 73.7861,60.1146 73.2861,54.7813 72.5,49.5C 64.5277,48.5023 56.5277,48.169 48.5,48.5C 48.5,54.1667 48.5,59.8333 48.5,65.5C 51.8499,65.665 55.1832,65.4983 58.5,65C 59.2931,61.5894 59.7931,58.0894 60,54.5C 65.8232,50.8459 68.6566,52.5125 68.5,59.5C 67.6368,68.1614 67.4701,76.8281 68,85.5C 65.6236,87.7441 62.9569,88.0774 60,86.5C 59.5012,82.5138 59.3345,78.5138 59.5,74.5C 55.8333,74.5 52.1667,74.5 48.5,74.5C 48.5,81.1667 48.5,87.8333 48.5,94.5C 56.4809,93.843 64.4809,93.343 72.5,93C 73.7185,91.5618 74.3852,89.8951 74.5,88C 73.5446,84.5286 73.3779,81.0286 74,77.5C 77,73.5 80,73.5 83,77.5C 83.6263,85.1794 83.9596,92.8461 84,100.5C 83.0975,101.701 81.9308,102.535 80.5,103C 62.8196,102.579 45.1529,102.579 27.5,103C 24.0682,100.633 23.7348,97.9663 26.5,95C 30.0894,94.7931 33.5894,94.2931 37,93.5C 37.6667,78.5 37.6667,63.5 37,48.5C 33.3333,47.8333 29.6667,47.1667 26,46.5C 23.8808,43.3541 24.3808,40.6875 27.5,38.5 Z"/></g>
<g><path style="opacity:1" fill="#fbfbfc" d="M 234.5,92.5 C 234.5,82.8333 234.5,73.1667 234.5,63.5C 233.167,63.5 231.833,63.5 230.5,63.5C 226.746,62.1724 225.579,59.5058 227,55.5C 229.381,54.565 231.881,54.2317 234.5,54.5C 234.334,50.4862 234.501,46.4862 235,42.5C 238,39.8333 241,39.8333 244,42.5C 244.499,46.4862 244.666,50.4862 244.5,54.5C 248.846,54.3343 253.179,54.501 257.5,55C 260.07,57.6153 260.07,60.282 257.5,63C 253.179,63.499 248.846,63.6657 244.5,63.5C 244.077,73.5797 244.577,83.5797 246,93.5C 248.459,96.1003 250.959,96.1003 253.5,93.5C 255.053,88.9844 255.887,84.3178 256,79.5C 258.209,77.2936 260.709,76.9602 263.5,78.5C 267.717,99.4557 259.717,106.956 239.5,101C 236.404,98.9713 234.738,96.138 234.5,92.5 Z"/></g>
<g><path style="opacity:1" fill="#f5f6f8" d="M 619.5,54.5 C 621.167,54.5 622.833,54.5 624.5,54.5C 624.5,50.8333 624.5,47.1667 624.5,43.5C 624.874,41.0503 626.374,40.0503 629,40.5C 631.034,40.3536 632.701,41.0203 634,42.5C 634.499,46.4862 634.666,50.4862 634.5,54.5C 638.846,54.3343 643.179,54.501 647.5,55C 650.167,57.6667 650.167,60.3333 647.5,63C 643.179,63.499 638.846,63.6657 634.5,63.5C 634.334,72.8393 634.5,82.1726 635,91.5C 637.477,96.3681 640.477,96.7014 644,92.5C 644.982,87.8742 645.816,83.2076 646.5,78.5C 649.291,76.9602 651.791,77.2936 654,79.5C 657.145,100.035 648.979,107.202 629.5,101C 627.083,99.3374 625.25,97.1707 624,94.5C 623.5,84.172 623.334,73.8387 623.5,63.5C 617.832,64.3288 615.332,61.9955 616,56.5C 616.816,55.1772 617.983,54.5106 619.5,54.5 Z"/></g>
<g><path style="opacity:1" fill="#4f7086" d="M 186.5,41.5 C 187.167,52.1667 187.833,62.8333 188.5,73.5C 188.44,74.0431 188.107,74.3764 187.5,74.5C 186.501,63.5202 186.168,52.5202 186.5,41.5 Z"/></g>
<g><path style="opacity:1" fill="#617e91" d="M 624.5,43.5 C 624.5,47.1667 624.5,50.8333 624.5,54.5C 622.833,54.5 621.167,54.5 619.5,54.5C 620.568,53.5655 621.901,53.2322 623.5,53.5C 623.187,49.9581 623.521,46.6248 624.5,43.5 Z"/></g>
<g><path style="opacity:1" fill="#fbfcfc" d="M 289.5,53.5 C 297.575,52.358 304.408,54.6913 310,60.5C 313.98,69.5351 311.313,75.2018 302,77.5C 296.91,77.1515 295.243,74.4848 297,69.5C 298.11,67.9632 299.61,67.2965 301.5,67.5C 301.863,65.0885 300.863,63.5885 298.5,63C 291.12,60.4689 286.62,62.9689 285,70.5C 284.5,78.4931 284.334,86.4931 284.5,94.5C 288.007,93.9935 291.174,94.6602 294,96.5C 294.667,98.1667 294.667,99.8333 294,101.5C 284.333,102.833 274.667,102.833 265,101.5C 264.104,98.975 264.604,96.8083 266.5,95C 269.146,94.5026 271.813,94.3359 274.5,94.5C 274.5,84.1667 274.5,73.8333 274.5,63.5C 271.482,63.6646 268.482,63.498 265.5,63C 264.018,60.4082 264.352,58.0749 266.5,56C 269.167,55.8333 271.833,55.6667 274.5,55.5C 280.276,57.9458 285.276,57.2791 289.5,53.5 Z"/></g>
<g><path style="opacity:1" fill="#f6f8f9" d="M 328.5,53.5 C 351.191,51.5636 361.358,61.897 359,84.5C 355.491,100.349 345.658,106.849 329.5,104C 318.306,99.2863 312.306,90.7863 311.5,78.5C 312.468,66.8772 318.135,58.5438 328.5,53.5 Z"/></g>
<g><path style="opacity:1" fill="#f7f8f9" d="M 136.5,53.5 C 148.391,52.5272 157.224,57.1939 163,67.5C 163.667,71.8333 163.667,76.1667 163,80.5C 151.581,81.4878 140.081,81.8211 128.5,81.5C 128.071,87.4765 130.404,91.9765 135.5,95C 145.652,97.7394 152.486,94.2394 156,84.5C 161.689,83.2007 163.689,85.534 162,91.5C 158.892,98.5837 153.392,102.75 145.5,104C 131.104,106.255 121.937,100.422 118,86.5C 115.403,70.3436 121.569,59.3436 136.5,53.5 Z"/></g>
<g><path style="opacity:1" fill="#fafafb" d="M 391.5,53.5 C 406.726,51.8986 415.893,58.5652 419,73.5C 420.441,84.8453 416.941,94.3453 408.5,102C 400.308,105.428 392.308,105.262 384.5,101.5C 383.513,104.768 383.18,108.102 383.5,111.5C 387.007,110.994 390.174,111.66 393,113.5C 393.473,118.362 391.14,120.695 386,120.5C 378.85,119.797 371.684,119.297 364.5,119C 363.167,116.667 363.167,114.333 364.5,112C 367.482,111.502 370.482,111.335 373.5,111.5C 373.5,95.5 373.5,79.5 373.5,63.5C 370.813,63.6641 368.146,63.4974 365.5,63C 364.167,60.6667 364.167,58.3333 365.5,56C 371.167,55.3333 376.833,55.3333 382.5,56C 383,56.5 383.5,57 384,57.5C 386.255,55.5012 388.755,54.1679 391.5,53.5 Z"/></g>
<g><path style="opacity:1" fill="#f8f9fa" d="M 557.5,65.5 C 557.5,75.5 557.5,85.5 557.5,95.5C 560.167,95.5 562.833,95.5 565.5,95.5C 569.39,97.6273 569.39,100.127 565.5,103C 557.5,103.667 549.5,103.667 541.5,103C 538.833,100.333 538.833,97.6667 541.5,95C 543.81,94.5034 546.143,94.3367 548.5,94.5C 548.666,85.8269 548.5,77.1603 548,68.5C 544.047,62.9612 538.88,61.4612 532.5,64C 530.951,65.214 529.785,66.714 529,68.5C 528.5,77.1603 528.334,85.8269 528.5,94.5C 531.448,94.2229 534.281,94.5562 537,95.5C 537.944,98.3471 537.444,100.847 535.5,103C 527.167,103.667 518.833,103.667 510.5,103C 508.217,96.1177 510.55,93.6177 517.5,95.5C 518.665,86.1845 518.832,76.8511 518,67.5C 511.028,60.6608 504.861,61.3275 499.5,69.5C 498.507,77.9839 498.174,86.6506 498.5,95.5C 500.5,95.5 502.5,95.5 504.5,95.5C 506.722,95.5587 507.722,96.7253 507.5,99C 507.561,100.711 506.894,102.044 505.5,103C 497.5,103.667 489.5,103.667 481.5,103C 479.951,101.786 478.785,100.286 478,98.5C 473.509,103.259 468.009,104.759 461.5,103C 460.005,101.839 458.505,100.673 457,99.5C 446.663,106.477 436.663,106.144 427,98.5C 424.149,93.3201 423.815,87.9868 426,82.5C 427.731,80.3834 429.898,78.8834 432.5,78C 438.861,76.7944 445.194,75.4611 451.5,74C 456.741,70.1966 456.741,66.5299 451.5,63C 448.167,62.3333 444.833,62.3333 441.5,63C 440.572,63.3879 439.905,64.0546 439.5,65C 441.892,70.6086 440.059,73.7753 434,74.5C 432.105,74.3852 430.438,73.7185 429,72.5C 425.894,63.9053 428.727,58.072 437.5,55C 444.653,52.736 451.653,53.0693 458.5,56C 461,57.1667 462.833,59 464,61.5C 465.265,72.4283 465.932,83.4283 466,94.5C 467.011,95.3366 468.178,95.67 469.5,95.5C 469.335,91.8183 469.501,88.1516 470,84.5C 472.747,81.9659 475.413,81.9659 478,84.5C 478.333,88.8333 478.667,93.1667 479,97.5C 479.833,96.6667 480.667,95.8333 481.5,95C 484.131,94.8933 486.631,94.7266 489,94.5C 489.5,84.172 489.666,73.8387 489.5,63.5C 486.482,63.6646 483.482,63.498 480.5,63C 478.941,60.3583 479.275,58.025 481.5,56C 486.5,55.3333 491.5,55.3333 496.5,56C 497.047,56.9246 497.713,57.7579 498.5,58.5C 507.401,52.9906 516.068,53.3239 524.5,59.5C 533.459,53.4776 542.792,52.9776 552.5,58C 555.2,59.8567 556.866,62.3567 557.5,65.5 Z"/></g>
<g><path style="opacity:1" fill="#f7f8f9" d="M 587.5,53.5 C 599.391,52.5272 608.224,57.1939 614,67.5C 614.667,71.8333 614.667,76.1667 614,80.5C 602.581,81.4878 591.081,81.8211 579.5,81.5C 579.071,87.4765 581.404,91.9765 586.5,95C 596.652,97.7394 603.486,94.2394 607,84.5C 612.689,83.2007 614.689,85.534 613,91.5C 609.892,98.5837 604.392,102.75 596.5,104C 582.104,106.255 572.937,100.422 569,86.5C 566.403,70.3436 572.569,59.3436 587.5,53.5 Z"/></g>
<g><path style="opacity:1" fill="#083452" d="M 136.5,62.5 C 140.605,62.2338 144.605,62.7338 148.5,64C 151.321,66.1413 152.654,68.9746 152.5,72.5C 144.804,72.8308 137.138,72.4975 129.5,71.5C 131.14,67.8482 133.474,64.8482 136.5,62.5 Z"/></g>
<g><path style="opacity:1" fill="#738c9d" d="M 192.5,62.5 C 195.187,62.3359 197.854,62.5026 200.5,63C 199.956,63.7172 199.289,64.2172 198.5,64.5C 196.5,63.8333 194.5,63.1667 192.5,62.5 Z"/></g>
<g><path style="opacity:1" fill="#063352" d="M 330.5,62.5 C 334.936,62.2101 339.27,62.7101 343.5,64C 345.617,65.7309 347.117,67.8976 348,70.5C 348.861,76.5851 348.527,82.5851 347,88.5C 341.973,95.8662 335.473,97.3662 327.5,93C 322.495,86.1281 321.328,78.6281 324,70.5C 325.305,67.0386 327.471,64.372 330.5,62.5 Z"/></g>
<g><path style="opacity:1" fill="#093453" d="M 392.5,62.5 C 400.741,61.1978 405.908,64.5311 408,72.5C 408.785,78.6539 408.118,84.6539 406,90.5C 404.74,93.4281 402.573,95.2614 399.5,96C 390.855,97.6942 385.688,94.1942 384,85.5C 382.85,78.8096 383.85,72.4762 387,66.5C 388.812,65.0229 390.645,63.6896 392.5,62.5 Z"/></g>
<g><path style="opacity:1" fill="#083452" d="M 587.5,62.5 C 591.605,62.2338 595.605,62.7338 599.5,64C 602.321,66.1413 603.654,68.9746 603.5,72.5C 595.804,72.8308 588.138,72.4975 580.5,71.5C 582.14,67.8482 584.474,64.8482 587.5,62.5 Z"/></g>
<g><path style="opacity:1" fill="#40647b" d="M 230.5,63.5 C 231.833,63.5 233.167,63.5 234.5,63.5C 234.5,73.1667 234.5,82.8333 234.5,92.5C 233.506,83.3483 233.173,74.015 233.5,64.5C 232.209,64.7373 231.209,64.404 230.5,63.5 Z"/></g>
<g><path style="opacity:1" fill="#c0ccd3" d="M 557.5,65.5 C 558.494,74.9856 558.827,84.6522 558.5,94.5C 561.059,94.1984 563.393,94.5318 565.5,95.5C 562.833,95.5 560.167,95.5 557.5,95.5C 557.5,85.5 557.5,75.5 557.5,65.5 Z"/></g>
<g><path style="opacity:1" fill="#95a9b6" d="M 499.5,69.5 C 499.5,77.8333 499.5,86.1667 499.5,94.5C 501.415,94.2155 503.081,94.5489 504.5,95.5C 502.5,95.5 500.5,95.5 498.5,95.5C 498.174,86.6506 498.507,77.9839 499.5,69.5 Z"/></g>
<g><path style="opacity:1" fill="#0d3755" d="M 453.5,80.5 C 456.279,84.8744 455.612,89.041 451.5,93C 446.924,94.4764 442.257,94.8098 437.5,94C 433.998,91.5038 433.665,88.6705 436.5,85.5C 442.146,83.3759 447.813,81.7092 453.5,80.5 Z"/></g>
</svg>
